<svg width="22" height="22" viewBox="0 0 22 22" fill="none" xmlns="http://www.w3.org/2000/svg">
<path fill-rule="evenodd" clip-rule="evenodd" d="M0 11C0 4.92487 4.92487 0 11 0C17.0751 0 22 4.92487 22 11C22 17.0751 17.0751 22 11 22C4.92487 22 0 17.0751 0 11ZM11 2C6.02943 2 2 6.02943 2 11C2 15.9706 6.02943 20 11 20C15.9706 20 20 15.9706 20 11C20 6.02943 15.9706 2 11 2ZM8.5 7C9.05229 7 9.5 7.44772 9.5 8V14C9.5 14.5523 9.05229 15 8.5 15C7.94772 15 7.5 14.5523 7.5 14V8C7.5 7.44772 7.94772 7 8.5 7ZM13.5 7C14.0523 7 14.5 7.44772 14.5 8V14C14.5 14.5523 14.0523 15 13.5 15C12.9477 15 12.5 14.5523 12.5 14V8C12.5 7.44772 12.9477 7 13.5 7Z" fill="black" fill-opacity="0.65"/>
</svg>
