<svg width="280" height="396" viewBox="0 0 280 396" fill="none" xmlns="http://www.w3.org/2000/svg">
<rect x="0.5" y="356.5" width="279" height="38" rx="19" fill="#C4C4C4" stroke="#8E8E8E"/>
<rect x="0.5" y="0.5" width="279" height="393" rx="19.5" fill="#F2F2F2" stroke="#D2D2D2"/>
<path d="M71.7734 84.2812H51.2266L47.3203 96H34.8594L56.0312 39.125L66.8906 39.125L88.1797 96H75.7188L71.7734 84.2812ZM54.3906 74.7891H68.6094L61.4609 53.5L54.3906 74.7891Z" fill="#F24822"/>
<path fill-rule="evenodd" clip-rule="evenodd" d="M35.2709 155.096L62.9237 186.79L93.738 158.16L66.0851 126.466L35.2709 155.096Z" fill="#F24822"/>
<g clip-path="url(#clip0_203_653)">
<rect x="0.5" y="356.5" width="279" height="38" rx="19" fill="#C4C4C4" stroke="#8E8E8E"/>
<rect x="0.5" y="0.5" width="279" height="393" rx="19.5" fill="#F2F2F2" stroke="#D2D2D2"/>
<mask id="mask0_203_653" style="mask-type:alpha" maskUnits="userSpaceOnUse" x="15" y="16" width="249" height="362">
<rect x="15" y="16" width="249" height="362" fill="#C4C4C4"/>
</mask>
<g mask="url(#mask0_203_653)">
<path d="M320.5 378.5L-42 16" stroke="#2F80ED" stroke-width="440" stroke-dasharray="20 20"/>
</g>
</g>
<defs>
<clipPath id="clip0_203_653">
<rect width="280" height="395" fill="white"/>
</clipPath>
</defs>
</svg>
